<svg width="91" height="38" viewBox="0 0 91 38" fill="none" xmlns="http://www.w3.org/2000/svg">
<path d="M9.44141 11.5527H9.98633C11.4746 11.5527 12.2188 12.0742 12.2188 13.1172C12.2188 13.832 11.9551 14.3887 11.4277 14.7871C10.9004 15.1855 10.1738 15.3848 9.24805 15.3848H7.96484L5.60938 21.168H7.57812C9.06641 21.168 9.81055 21.6895 9.81055 22.7324C9.81055 23.4473 9.54688 24.0039 9.01953 24.4023C8.50391 24.8008 7.77734 25 6.83984 25H3.69336C2.80273 25 2.09375 24.7949 1.56641 24.3848C1.05078 23.9746 0.792969 23.418 0.792969 22.7148C0.792969 22.2812 0.898438 21.8008 1.10938 21.2734L1.44336 20.5L3.51758 15.3848H3.25391C1.94141 15.3848 1.28516 14.875 1.28516 13.8555C1.28516 13.1289 1.54297 12.5664 2.05859 12.168C2.58594 11.7578 3.31836 11.5527 4.25586 11.5527H5.06445L5.99609 9.25L6.18945 8.77539C6.74023 7.47461 7.60742 6.82422 8.79102 6.82422C9.27148 6.82422 9.68164 6.98828 10.0215 7.31641C10.373 7.63281 10.5488 8.01953 10.5488 8.47656C10.5488 8.92188 10.3965 9.48438 10.0918 10.1641L9.44141 11.5527ZM19.9355 12.3086C21.166 11.6406 22.1797 11.3066 22.9766 11.3066C24.1016 11.3066 25.0215 11.623 25.7363 12.2559C26.4629 12.877 26.8262 13.6738 26.8262 14.6465C26.8262 15.2324 26.6855 15.8711 26.4043 16.5625L24.5586 21.168H26.5801C28.0566 21.168 28.7949 21.6895 28.7949 22.7324C28.7949 23.4473 28.5312 24.0039 28.0039 24.4023C27.4883 24.8008 26.7617 25 25.8242 25H22.291C21.541 25 20.9082 24.7891 20.3926 24.3672C19.8887 23.9336 19.6367 23.4062 19.6367 22.7852C19.6367 22.3633 19.7715 21.8242 20.041 21.168L21.6582 17.1953C21.8574 16.6914 21.957 16.3105 21.957 16.0527C21.957 15.3848 21.5117 15.0508 20.6211 15.0508C19.4258 15.0508 18.418 16.0703 17.5977 18.1094L15.6289 22.9434C15.0078 24.4785 14.0879 25.2461 12.8691 25.2461C12.3887 25.2461 11.9785 25.0938 11.6387 24.7891C11.2988 24.4844 11.1289 24.1152 11.1289 23.6816C11.1289 23.3535 11.2168 22.9668 11.3926 22.5215L11.5859 22.0469L19.2324 3.18555C19.9004 1.56836 20.8145 0.759766 21.9746 0.759766C22.4551 0.759766 22.8652 0.923828 23.2051 1.25195C23.5566 1.56836 23.7324 1.95508 23.7324 2.41211C23.7324 2.78711 23.5801 3.34375 23.2754 4.08203L19.9355 12.3086ZM33.875 15.4023L33.2773 16.8789C32.7383 18.1914 32.0352 18.8477 31.168 18.8477C30.6406 18.8477 30.2012 18.6895 29.8496 18.373C29.498 18.0566 29.3223 17.6641 29.3223 17.1953C29.3223 16.9258 29.4512 16.4688 29.709 15.8242L31.6953 10.9199C32.1758 9.73633 32.8555 9.14453 33.7344 9.14453C34.6016 9.14453 35.1348 9.55469 35.334 10.375L35.4746 10.9199C35.5449 11.2012 35.6504 11.377 35.791 11.4473C35.9316 11.5176 36.2773 11.5527 36.8281 11.5527H40.9414C42.4766 11.5527 43.2441 12.0918 43.2441 13.1699C43.2441 14.6582 42.2715 15.4023 40.3262 15.4023L40.1328 15.5781C38.2695 17.3594 37.3379 18.7363 37.3379 19.709C37.3379 20.6816 37.877 21.168 38.9551 21.168H41.1699C42.6582 21.168 43.4023 21.6836 43.4023 22.7148C43.4023 23.4414 43.1387 24.0039 42.6113 24.4023C42.0957 24.8008 41.3691 25 40.4316 25H36.9863C35.8145 25 34.8535 24.5957 34.1035 23.7871C33.3652 22.9785 32.9961 21.9297 32.9961 20.6406C32.9961 19.8203 33.1953 19.0234 33.5938 18.25C33.9922 17.4766 34.6953 16.5273 35.7031 15.4023H33.875ZM49.0625 21.168H51.0488C52.5254 21.168 53.2637 21.6895 53.2637 22.7324C53.2637 23.4473 53 24.0039 52.4727 24.4023C51.957 24.8008 51.2305 25 50.293 25H47.498C46.4668 25 45.6523 24.7891 45.0547 24.3672C44.4688 23.9453 44.1758 23.3711 44.1758 22.6445C44.1758 22.2578 44.2988 21.7656 44.5449 21.168L47.4453 14.0312L47.6387 13.5391C48.1777 12.2148 49.0449 11.5527 50.2402 11.5527C50.7324 11.5527 51.1543 11.7168 51.5059 12.0449C51.8691 12.373 52.0508 12.7656 52.0508 13.2227C52.0508 13.5977 51.8926 14.1719 51.5762 14.9453L49.0625 21.168ZM51.3828 5.94531C52.0625 5.94531 52.6367 6.18555 53.1055 6.66602C53.5859 7.13477 53.8262 7.70898 53.8262 8.38867C53.8262 9.06836 53.5859 9.64844 53.1055 10.1289C52.6367 10.5977 52.0625 10.832 51.3828 10.832C50.7031 10.832 50.123 10.5977 49.6426 10.1289C49.1738 9.64844 48.9395 9.06836 48.9395 8.38867C48.9395 7.70898 49.1738 7.13477 49.6426 6.66602C50.123 6.18555 50.7031 5.94531 51.3828 5.94531ZM63.6523 11.5527H66.0781C67.5664 11.5527 68.3105 12.0742 68.3105 13.1172C68.3105 13.832 68.0469 14.3887 67.5195 14.7871C67.0039 15.1855 66.2773 15.3848 65.3398 15.3848H62.1055L54.2129 34.8438C53.5566 36.4492 52.6426 37.252 51.4707 37.252C50.9551 37.252 50.5215 37.0938 50.1699 36.7773C49.8184 36.4609 49.6426 36.0684 49.6426 35.5996C49.6426 35.2598 49.7949 34.7031 50.0996 33.9297L57.6406 15.3848H56.4453C54.957 15.3848 54.2129 14.875 54.2129 13.8555C54.2129 13.1289 54.4707 12.5664 54.9863 12.168C55.5137 11.7578 56.2461 11.5527 57.1836 11.5527H59.1875L61.4199 6.05078C62.1699 4.22266 63.0664 2.92773 64.1094 2.16602C65.1641 1.39258 66.5703 1.00586 68.3281 1.00586H70.332C71.832 1.00586 72.582 1.52148 72.582 2.55273C72.582 3.29102 72.3184 3.86523 71.791 4.27539C71.2637 4.68555 70.5312 4.89062 69.5938 4.89062H69.0664C68.082 4.89062 67.3027 5.08984 66.7285 5.48828C66.166 5.88672 65.6914 6.56055 65.3047 7.50977L63.6523 11.5527ZM74.832 11.5527H75.377C76.8652 11.5527 77.6094 12.0742 77.6094 13.1172C77.6094 13.832 77.3457 14.3887 76.8184 14.7871C76.291 15.1855 75.5645 15.3848 74.6387 15.3848H73.3555L71 21.168H72.9688C74.457 21.168 75.2012 21.6895 75.2012 22.7324C75.2012 23.4473 74.9375 24.0039 74.4102 24.4023C73.8945 24.8008 73.168 25 72.2305 25H69.084C68.1934 25 67.4844 24.7949 66.957 24.3848C66.4414 23.9746 66.1836 23.418 66.1836 22.7148C66.1836 22.2812 66.2891 21.8008 66.5 21.2734L66.834 20.5L68.9082 15.3848H68.6445C67.332 15.3848 66.6758 14.875 66.6758 13.8555C66.6758 13.1289 66.9336 12.5664 67.4492 12.168C67.9766 11.7578 68.709 11.5527 69.6465 11.5527H70.4551L71.3867 9.25L71.5801 8.77539C72.1309 7.47461 72.998 6.82422 74.1816 6.82422C74.6621 6.82422 75.0723 6.98828 75.4121 7.31641C75.7637 7.63281 75.9395 8.01953 75.9395 8.47656C75.9395 8.92188 75.7871 9.48438 75.4824 10.1641L74.832 11.5527ZM81.2656 15.4023L80.668 16.8789C80.1289 18.1914 79.4258 18.8477 78.5586 18.8477C78.0312 18.8477 77.5918 18.6895 77.2402 18.373C76.8887 18.0566 76.7129 17.6641 76.7129 17.1953C76.7129 16.9258 76.8418 16.4688 77.0996 15.8242L79.0859 10.9199C79.5664 9.73633 80.2461 9.14453 81.125 9.14453C81.9922 9.14453 82.5254 9.55469 82.7246 10.375L82.8652 10.9199C82.9355 11.2012 83.041 11.377 83.1816 11.4473C83.3223 11.5176 83.668 11.5527 84.2188 11.5527H88.332C89.8672 11.5527 90.6348 12.0918 90.6348 13.1699C90.6348 14.6582 89.6621 15.4023 87.7168 15.4023L87.5234 15.5781C85.6602 17.3594 84.7285 18.7363 84.7285 19.709C84.7285 20.6816 85.2676 21.168 86.3457 21.168H88.5605C90.0488 21.168 90.793 21.6836 90.793 22.7148C90.793 23.4414 90.5293 24.0039 90.002 24.4023C89.4863 24.8008 88.7598 25 87.8223 25H84.377C83.2051 25 82.2441 24.5957 81.4941 23.7871C80.7559 22.9785 80.3867 21.9297 80.3867 20.6406C80.3867 19.8203 80.5859 19.0234 80.9844 18.25C81.3828 17.4766 82.0859 16.5273 83.0938 15.4023H81.2656Z" fill="#1F1F1F"/>
</svg>
